<mxfile host="app.diagrams.net" modified="2023-10-25T20:17:27.904Z" agent="Mozilla/5.0 (Windows NT 10.0; Win64; x64) AppleWebKit/537.36 (KHTML, like Gecko) Chrome/118.0.0.0 Safari/537.36" etag="apj0M0MtVDmnyDKwqF-_" version="22.0.8" type="device">
  <diagram name="Страница — 1" id="JvLDM5VmiaUj2eFw4zym">
    <mxGraphModel dx="2607" dy="1378" grid="1" gridSize="10" guides="1" tooltips="1" connect="1" arrows="1" fold="1" page="1" pageScale="1" pageWidth="5000" pageHeight="5000" math="0" shadow="0">
      <root>
        <mxCell id="0" />
        <mxCell id="1" parent="0" />
        <mxCell id="rznqt_UP5PXpAUkKrup3-1" value="&lt;font style=&quot;font-size: 20px;&quot; color=&quot;#000000&quot;&gt;* SpectraManager&lt;br style=&quot;font-size: 20px;&quot;&gt;&lt;/font&gt;" style="swimlane;whiteSpace=wrap;html=1;fillColor=#60a917;fontColor=#ffffff;strokeColor=#2D7600;fontSize=20;" vertex="1" parent="1">
          <mxGeometry x="1220" y="760" width="320" height="320" as="geometry" />
        </mxCell>
        <mxCell id="rznqt_UP5PXpAUkKrup3-2" value="&lt;font style=&quot;font-size: 20px;&quot; color=&quot;#000000&quot;&gt;* COMworker&lt;/font&gt;" style="swimlane;whiteSpace=wrap;html=1;fillColor=#60a917;fontColor=#ffffff;strokeColor=#2D7600;fontSize=20;" vertex="1" parent="1">
          <mxGeometry x="1220" y="320" width="320" height="320" as="geometry" />
        </mxCell>
        <mxCell id="rznqt_UP5PXpAUkKrup3-3" value="&lt;font style=&quot;font-size: 20px;&quot; color=&quot;#000000&quot;&gt;UI&lt;/font&gt;" style="swimlane;whiteSpace=wrap;html=1;fillColor=#60a917;fontColor=#ffffff;strokeColor=#2D7600;startSize=23;" vertex="1" parent="1">
          <mxGeometry x="2010" y="320" width="320" height="750" as="geometry" />
        </mxCell>
      </root>
    </mxGraphModel>
  </diagram>
</mxfile>
